
<svg version="1.0" xmlns="http://www.w3.org/2000/svg"
 width="512.000000pt" height="512.000000pt" viewBox="0 0 512.000000 512.000000"
 preserveAspectRatio="xMidYMid meet">
<g transform="translate(0.000000,512.000000) scale(0.100000,-0.100000)"
fill="#000000" stroke="none">
<path d="M993 4582 l-993 -497 0 -760 c0 -822 3 -874 55 -1111 102 -461 334
-884 668 -1217 156 -155 232 -212 774 -575 l503 -335 340 226 c187 125 342
227 344 227 3 0 48 -45 101 -99 194 -200 427 -328 705 -388 66 -14 128 -18
280 -18 177 1 205 3 300 27 237 59 400 143 586 299 227 192 400 499 449 799
20 124 19 349 -1 465 -59 341 -254 657 -531 862 -143 106 -383 214 -530 238
l-43 7 0 676 0 677 -995 498 c-547 273 -1001 497 -1008 496 -6 0 -459 -224
-1004 -497z m1932 -149 l915 -458 0 -612 0 -611 -80 0 -80 0 0 569 0 569 -840
420 -840 420 -840 -420 -840 -420 0 -660 c0 -730 3 -769 64 -1014 98 -388 294
-725 587 -1012 142 -137 214 -191 667 -493 l362 -241 255 170 c140 93 258 170
262 170 8 0 76 -121 71 -125 -30 -24 -581 -385 -588 -385 -16 0 -867 570 -956
641 -437 347 -738 847 -839 1398 -36 193 -45 392 -45 1056 l0 580 913 457
c501 251 918 457 924 457 7 1 425 -205 928 -456z m-160 -280 l755 -378 0 -500
c0 -275 -3 -510 -6 -522 -5 -17 -18 -24 -57 -33 -182 -39 -368 -128 -557 -268
-17 -12 -148 16 -462 99 -38 10 -38 10 -38 62 l1 52 79 58 80 59 0 496 c0 463
-2 500 -19 537 -38 82 -109 128 -216 140 -33 4 -83 15 -110 25 -175 63 -498
40 -671 -48 -170 -87 -264 -246 -264 -448 l0 -94 80 0 80 0 0 -304 0 -304 80
-59 79 -58 1 -52 c0 -52 0 -52 -37 -62 -21 -6 -157 -40 -303 -76 -159 -39
-289 -77 -326 -95 -74 -36 -146 -110 -182 -188 -24 -52 -27 -71 -32 -212 l-5
-155 -44 95 c-52 112 -105 262 -132 376 -47 197 -51 260 -56 884 l-5 595 754
377 c414 207 759 377 765 377 7 1 353 -169 768 -376z m-652 -324 c29 -6 59
-17 68 -25 9 -8 38 -14 73 -14 31 0 72 -6 91 -14 45 -19 57 -62 53 -190 l-3
-100 -58 77 -57 77 -61 0 c-47 0 -84 -9 -158 -37 l-96 -38 -252 -3 c-284 -4
-271 -8 -232 71 27 53 84 113 130 137 136 71 335 94 502 59z m185 -498 l102
-138 0 -159 -1 -159 -131 -97 -132 -98 -136 0 -137 0 -130 98 -131 97 -1 258
-1 257 168 0 c177 0 275 16 372 59 25 11 47 20 50 20 3 0 51 -62 108 -138z
m1680 -767 c238 -42 448 -156 632 -344 157 -159 248 -319 307 -537 25 -90 27
-113 27 -293 0 -180 -2 -203 -27 -293 -124 -458 -495 -802 -951 -882 -128 -22
-315 -20 -439 6 -232 47 -426 151 -598 319 -165 162 -268 338 -326 557 -35
132 -43 364 -18 498 47 255 151 453 334 636 287 286 659 403 1059 333z m-1978
-54 c166 0 199 2 219 17 l24 16 -6 -81 c-7 -94 -25 -144 -70 -191 -90 -95
-244 -95 -334 0 -45 47 -63 97 -70 191 l-6 81 24 -16 c20 -15 53 -17 219 -17z
m-391 -176 c34 -135 128 -240 254 -284 l52 -18 3 -161 2 -161 80 0 80 0 2 161
3 161 53 18 c124 44 219 150 253 284 6 25 13 46 15 46 3 0 78 -18 168 -41
l163 -41 -69 -91 c-125 -168 -220 -387 -253 -587 -22 -139 -20 -354 5 -485 12
-58 25 -115 29 -128 8 -20 -10 -34 -220 -175 l-229 -152 -360 240 -360 241 0
359 0 360 -80 0 -80 0 0 -292 -1 -293 -76 80 c-41 44 -95 106 -120 138 l-45
58 4 252 3 252 31 55 c49 87 82 102 391 180 147 38 273 69 279 69 7 1 17 -20
23 -45z"/>
<path d="M3855 1850 l-390 -390 -135 135 c-74 74 -140 135 -145 135 -13 0
-455 -442 -455 -455 0 -13 722 -735 735 -735 13 0 1245 1232 1245 1245 0 13
-442 455 -455 455 -6 0 -186 -175 -400 -390z m515 45 l105 -105 -505 -505
-505 -505 -250 250 -250 250 108 107 107 108 138 -138 c75 -75 142 -137 147
-137 6 0 186 176 400 390 214 215 392 390 395 390 3 0 52 -47 110 -105z"/>
<path d="M4160 3635 l0 -85 480 0 480 0 0 85 0 85 -480 0 -480 0 0 -85z"/>
<path d="M4160 3315 l0 -85 320 0 320 0 0 85 0 85 -320 0 -320 0 0 -85z"/>
<path d="M4160 2995 l0 -85 160 0 160 0 0 85 0 85 -160 0 -160 0 0 -85z"/>
</g>
</svg>
