<?xml version="1.0" standalone="no"?>
<!DOCTYPE svg PUBLIC "-//W3C//DTD SVG 20010904//EN"
 "http://www.w3.org/TR/2001/REC-SVG-20010904/DTD/svg10.dtd">
<svg version="1.0" xmlns="http://www.w3.org/2000/svg"
 width="512.000000pt" height="512.000000pt" viewBox="0 0 512.000000 512.000000"
 preserveAspectRatio="xMidYMid meet">
<metadata>
Created by potrace 1.16, written by Peter Selinger 2001-2019
</metadata>
<g transform="translate(0.000000,512.000000) scale(0.100000,-0.100000)"
fill="#000000" stroke="none">
<path d="M4320 5021 c-132 -42 -246 -128 -316 -238 -44 -68 -84 -189 -84 -252
l0 -51 -1920 0 -1920 0 0 -1600 0 -1600 1199 0 1199 0 7 -67 c37 -352 254
-713 546 -910 227 -154 454 -223 729 -223 272 0 497 68 725 218 90 60 277 247
337 337 150 228 218 453 218 725 0 359 -122 653 -377 909 l-103 104 0 773 0
774 28 6 c108 24 212 78 282 147 116 115 170 242 170 404 0 113 -15 176 -66
274 -64 122 -179 217 -317 264 -95 31 -249 34 -337 6z m323 -184 c74 -34 160
-119 195 -194 24 -52 27 -70 27 -163 0 -93 -3 -111 -27 -163 -35 -74 -121
-160 -195 -195 -52 -24 -70 -27 -163 -27 -93 0 -111 3 -163 27 -74 35 -160
121 -195 195 -24 52 -27 70 -27 163 0 93 3 111 26 160 48 101 130 176 232 212
78 28 213 21 290 -15z m-666 -605 l42 -87 -235 -235 -234 -235 -110 1 -111 1
-68 67 -69 68 5 78 c7 93 -6 138 -56 193 -49 55 -101 77 -181 77 -80 0 -132
-22 -181 -77 -50 -55 -63 -99 -56 -192 l5 -76 -190 -191 -191 -192 -77 5 c-93
7 -138 -6 -193 -56 -54 -48 -77 -101 -77 -179 0 -146 95 -242 240 -242 80 0
132 22 181 77 50 55 63 100 56 193 l-5 77 192 189 191 189 108 0 108 -1 68
-68 69 -68 -5 -78 c-7 -93 6 -138 56 -193 49 -55 101 -77 181 -77 80 0 132 22
181 77 50 55 63 100 56 193 l-5 77 237 237 237 237 54 -31 c53 -28 114 -51
173 -64 l27 -6 0 -720 c0 -396 -2 -720 -5 -720 -3 0 -37 16 -76 36 -92 46
-226 89 -336 109 -114 20 -335 20 -449 0 -241 -42 -476 -162 -660 -337 l-74
-71 0 172 0 171 -240 0 -240 0 0 -480 0 -480 91 0 c72 0 90 -3 86 -13 -3 -8
-8 -44 -12 -80 l-7 -67 -1119 0 -1119 0 0 1440 0 1440 1848 0 1847 -1 42 -87z
m-967 -262 c11 -11 20 -33 20 -50 0 -17 -9 -39 -20 -50 -11 -11 -33 -20 -50
-20 -17 0 -39 9 -50 20 -11 11 -20 33 -20 50 0 17 9 39 20 50 11 11 33 20 50
20 17 0 39 -9 50 -20z m480 -480 c11 -11 20 -33 20 -50 0 -17 -9 -39 -20 -50
-11 -11 -33 -20 -50 -20 -17 0 -39 9 -50 20 -11 11 -20 33 -20 50 0 17 9 39
20 50 11 11 33 20 50 20 17 0 39 -9 50 -20z m-1200 -240 c11 -11 20 -33 20
-50 0 -17 -9 -39 -20 -50 -11 -11 -33 -20 -50 -20 -17 0 -39 9 -50 20 -11 11
-20 33 -20 50 0 17 9 39 20 50 11 11 33 20 50 20 17 0 39 -9 50 -20z m1390
-934 l0 -154 -47 -7 c-77 -11 -193 -52 -268 -94 -191 -107 -332 -294 -386
-510 -30 -121 -24 -321 14 -436 15 -44 23 -83 19 -86 -4 -4 -63 -39 -131 -77
l-125 -71 -18 40 c-30 67 -65 190 -78 271 -18 111 -8 341 20 441 113 418 438
727 860 817 47 10 97 19 113 19 l27 1 0 -154z m295 135 c421 -88 747 -393 862
-806 31 -113 42 -333 23 -452 -13 -82 -48 -205 -79 -272 l-17 -40 -127 73
c-70 40 -129 75 -132 77 -2 3 8 41 22 84 21 66 27 105 31 216 5 166 -14 255
-84 399 -40 80 -62 109 -143 191 -132 132 -278 209 -443 234 l-48 7 0 154 c0
179 -13 166 135 135z m-1335 -256 l0 -205 -34 -68 c-18 -37 -41 -88 -51 -114
-15 -42 -21 -48 -46 -48 l-29 0 0 320 0 320 80 0 80 0 0 -205z m1274 -221
c220 -53 403 -237 460 -460 21 -79 21 -228 0 -308 -50 -193 -201 -364 -386
-436 -351 -136 -747 69 -843 435 -19 76 -19 234 0 310 88 336 431 541 769 459z
m-737 -1165 c163 -170 348 -249 583 -249 236 0 423 80 583 249 37 40 71 71 76
69 37 -15 251 -144 251 -151 0 -17 -101 -136 -158 -188 -331 -296 -790 -373
-1192 -200 -100 43 -228 125 -312 200 -57 52 -158 171 -158 188 0 8 235 150
252 152 3 1 37 -31 75 -70z"/>
<path d="M400 4080 l0 -80 80 0 80 0 0 80 0 80 -80 0 -80 0 0 -80z"/>
<path d="M720 4080 l0 -80 560 0 560 0 0 80 0 80 -560 0 -560 0 0 -80z"/>
<path d="M400 3760 l0 -80 80 0 80 0 0 80 0 80 -80 0 -80 0 0 -80z"/>
<path d="M720 3760 l0 -80 560 0 560 0 0 80 0 80 -560 0 -560 0 0 -80z"/>
<path d="M400 3440 l0 -80 80 0 80 0 0 80 0 80 -80 0 -80 0 0 -80z"/>
<path d="M720 3440 l0 -80 560 0 560 0 0 80 0 80 -560 0 -560 0 0 -80z"/>
<path d="M400 3120 l0 -80 80 0 80 0 0 80 0 80 -80 0 -80 0 0 -80z"/>
<path d="M720 3120 l0 -80 560 0 560 0 0 80 0 80 -560 0 -560 0 0 -80z"/>
<path d="M1680 2240 l0 -640 240 0 240 0 0 640 0 640 -240 0 -240 0 0 -640z
m320 0 l0 -480 -80 0 -80 0 0 480 0 480 80 0 80 0 0 -480z"/>
<path d="M400 2000 l0 -400 240 0 240 0 0 400 0 400 -240 0 -240 0 0 -400z
m320 0 l0 -240 -80 0 -80 0 0 240 0 240 80 0 80 0 0 -240z"/>
<path d="M1040 1920 l0 -320 240 0 240 0 0 320 0 320 -240 0 -240 0 0 -320z
m320 0 l0 -160 -80 0 -80 0 0 160 0 160 80 0 80 0 0 -160z"/>
<path d="M3608 1821 c-74 -24 -144 -69 -200 -129 -91 -97 -128 -194 -128 -332
0 -138 37 -235 128 -332 95 -101 206 -148 352 -148 146 0 257 47 352 148 91
97 128 194 128 332 0 138 -37 235 -128 332 -57 61 -127 105 -203 129 -81 25
-222 25 -301 0z m290 -180 c54 -28 115 -88 144 -143 19 -36 23 -58 23 -138 0
-109 -17 -152 -85 -220 -68 -68 -111 -85 -220 -85 -80 0 -102 4 -138 23 -55
30 -115 90 -143 144 -27 52 -36 164 -20 225 24 90 116 186 205 213 54 17 186
6 234 -19z"/>
</g>
</svg>
