<?xml version="1.0" standalone="no"?>
<!DOCTYPE svg PUBLIC "-//W3C//DTD SVG 20010904//EN"
 "http://www.w3.org/TR/2001/REC-SVG-20010904/DTD/svg10.dtd">
<svg version="1.0" xmlns="http://www.w3.org/2000/svg"
 width="512.000000pt" height="512.000000pt" viewBox="0 0 512.000000 512.000000"
 preserveAspectRatio="xMidYMid meet">
<metadata>
Created by potrace 1.16, written by Peter Selinger 2001-2019
</metadata>
<g transform="translate(0.000000,512.000000) scale(0.100000,-0.100000)"
fill="#000000" stroke="none">
<path d="M2255 5109 c-455 -55 -905 -241 -1275 -527 -116 -90 -325 -296 -420
-413 -237 -294 -409 -646 -495 -1014 -52 -223 -60 -302 -60 -605 0 -253 3
-299 23 -413 28 -154 77 -339 127 -473 46 -125 168 -374 200 -408 49 -53 145
-18 145 52 0 17 -28 83 -64 153 -113 215 -190 444 -238 698 -28 155 -36 521
-14 691 70 532 303 1014 670 1384 632 637 1531 870 2391 620 208 -61 453 -177
645 -306 l110 -73 -134 -5 c-147 -5 -169 -14 -181 -70 -7 -32 15 -84 40 -94
21 -8 194 -7 389 2 146 7 148 8 172 35 13 16 24 38 24 50 0 12 -30 126 -66
252 -71 250 -84 275 -141 275 -87 0 -102 -43 -64 -180 15 -54 23 -96 17 -93
-6 4 -51 33 -100 65 -292 192 -615 316 -980 379 -97 17 -173 22 -381 24 -143
2 -296 -1 -340 -6z"/>
<path d="M2310 4139 c-437 -38 -741 -153 -821 -311 -18 -36 -19 -79 -19 -1273
0 -1014 2 -1241 13 -1268 72 -171 378 -278 884 -309 554 -34 1082 71 1229 245
57 67 54 -4 54 1332 0 1198 -1 1237 -19 1273 -73 143 -316 246 -696 297 -145
19 -481 27 -625 14z m476 -169 c158 -13 331 -43 439 -77 139 -44 255 -113 255
-153 0 -47 -143 -130 -295 -170 -344 -90 -906 -90 -1250 0 -152 40 -295 123
-295 170 0 39 117 110 245 149 241 75 584 106 901 81z m-1098 -499 c100 -51
355 -108 576 -130 141 -14 451 -14 592 0 221 22 476 79 576 130 21 11 40 19
43 19 3 0 5 -83 5 -184 l0 -184 -37 -32 c-47 -42 -123 -75 -238 -105 -495
-131 -1324 -74 -1528 105 l-37 32 0 184 c0 101 2 184 5 184 3 0 22 -8 43 -19z
m41 -606 c219 -91 642 -140 1019 -117 332 21 514 58 720 149 9 4 12 -36 12
-180 l0 -185 -37 -32 c-264 -233 -1491 -235 -1761 -4 l-42 36 0 185 c0 144 3
184 13 180 6 -3 41 -18 76 -32z m-28 -579 c143 -65 378 -110 666 -128 396 -24
836 29 1052 128 29 13 55 24 57 24 2 0 4 -83 4 -184 l0 -184 -35 -31 c-71 -62
-196 -106 -390 -139 -515 -88 -1192 -22 -1373 134 l-42 36 0 184 c0 101 2 184
4 184 2 0 28 -11 57 -24z m10 -595 c391 -174 1352 -169 1723 10 22 10 41 19
43 19 2 0 3 -83 3 -184 l0 -184 -35 -31 c-71 -62 -197 -107 -395 -140 -322
-53 -658 -53 -980 0 -198 33 -324 78 -395 140 l-35 31 0 184 c0 101 2 184 4
184 2 0 32 -13 67 -29z"/>
<path d="M4645 3865 c-38 -37 -32 -70 39 -206 113 -215 190 -444 238 -698 28
-155 36 -521 14 -691 -106 -810 -596 -1497 -1321 -1855 -334 -165 -677 -246
-1048 -246 -330 0 -616 56 -927 180 -101 41 -299 148 -410 223 l-110 73 134 5
c147 5 169 14 181 70 8 38 -18 88 -51 96 -14 4 -136 3 -271 -1 l-247 -7 -28
-28 c-15 -16 -28 -39 -28 -52 0 -48 131 -483 152 -505 25 -26 82 -31 111 -9
34 26 36 65 7 168 -15 54 -22 94 -16 91 6 -4 51 -33 100 -65 324 -213 725
-355 1118 -397 142 -16 457 -14 595 4 484 62 919 247 1298 552 129 104 339
321 434 446 257 343 414 716 488 1162 14 89 18 165 18 395 0 253 -3 299 -23
413 -28 154 -77 339 -127 473 -46 125 -168 374 -200 408 -32 35 -86 36 -120 1z"/>
</g>
</svg>
