<?xml version="1.0" standalone="no"?>
<!DOCTYPE svg PUBLIC "-//W3C//DTD SVG 20010904//EN"
 "http://www.w3.org/TR/2001/REC-SVG-20010904/DTD/svg10.dtd">
<svg version="1.0" xmlns="http://www.w3.org/2000/svg"
 width="512.000000pt" height="512.000000pt" viewBox="0 0 512.000000 512.000000"
 preserveAspectRatio="xMidYMid meet">
<metadata>
Created by potrace 1.16, written by Peter Selinger 2001-2019
</metadata>
<g transform="translate(0.000000,512.000000) scale(0.100000,-0.100000)"
fill="#000000" stroke="none">
<path d="M2255 4783 c-538 -72 -1065 -362 -1407 -775 -285 -343 -456 -731
-513 -1162 -20 -153 -19 -429 1 -588 113 -877 750 -1616 1606 -1863 393 -113
846 -113 1241 1 140 40 311 108 427 171 133 71 257 154 274 184 42 72 -1 157
-84 166 -41 4 -52 0 -130 -52 -234 -154 -514 -262 -805 -311 -139 -24 -462
-24 -600 -1 -449 77 -828 269 -1130 571 -606 608 -766 1532 -400 2295 109 226
228 395 400 566 792 793 2066 792 2861 -1 555 -553 739 -1395 467 -2124 -46
-124 -131 -293 -200 -400 -64 -98 -74 -139 -44 -188 32 -50 91 -65 148 -39 60
27 246 366 322 589 171 500 161 1056 -26 1542 -296 766 -993 1315 -1806 1421
-148 19 -452 18 -602 -2z"/>
<path d="M2395 4369 c-131 -12 -284 -45 -414 -89 -141 -48 -166 -69 -166 -141
0 -45 4 -54 33 -80 44 -39 74 -38 219 11 66 22 176 49 244 61 244 42 551 15
784 -68 459 -164 833 -548 984 -1010 61 -187 76 -287 75 -508 0 -157 -4 -208
-23 -295 -139 -651 -609 -1122 -1261 -1261 -143 -31 -435 -33 -585 -5 -427 79
-809 329 -1046 684 -116 174 -185 333 -235 547 -27 112 -28 134 -28 335 0 242
13 329 79 519 44 125 45 160 6 203 -26 29 -35 33 -80 33 -72 0 -93 -25 -141
-166 -127 -377 -129 -777 -5 -1156 178 -541 607 -971 1151 -1152 222 -74 296
-85 574 -86 218 0 257 3 355 23 732 153 1288 708 1435 1432 41 203 41 506 0
710 -162 802 -820 1389 -1635 1459 -135 12 -190 12 -320 0z"/>
<path d="M3230 3407 c-26 -7 -62 -23 -80 -34 -19 -12 -226 -213 -459 -447
l-425 -425 -130 127 c-166 162 -194 177 -331 177 -92 0 -104 -2 -153 -29 -107
-60 -166 -161 -166 -287 0 -133 19 -160 321 -461 298 -297 321 -313 453 -313
144 0 107 -30 748 609 416 414 581 585 600 621 24 45 27 61 27 150 0 112 -14
151 -81 225 -73 80 -215 118 -324 87z m130 -222 c39 -20 60 -53 60 -95 0 -32
-33 -67 -547 -583 -318 -318 -562 -555 -580 -563 -28 -12 -38 -12 -65 0 -18 8
-142 124 -275 258 -242 243 -243 244 -243 287 0 35 6 48 31 72 57 53 102 37
209 -71 8 -9 72 -71 142 -138 126 -122 126 -122 174 -122 l49 0 475 474 c261
260 484 479 495 484 27 15 41 15 75 -3z"/>
<path d="M4023 1144 c-18 -9 -39 -31 -48 -51 -54 -113 91 -214 180 -126 52 53
37 146 -30 177 -41 20 -61 20 -102 0z"/>
</g>
</svg>
